<svg id="visual" viewBox="0 0 1440 300" width="1440" height="300" xmlns="http://www.w3.org/2000/svg" xmlns:xlink="http://www.w3.org/1999/xlink" version="1.1"><path d="M0 272L16 258.5C32 245 64 218 96 220.2C128 222.3 160 253.7 192 258.8C224 264 256 243 288 232.7C320 222.3 352 222.7 384 214.8C416 207 448 191 480 186.5C512 182 544 189 576 209.5C608 230 640 264 672 266.2C704 268.3 736 238.7 768 230C800 221.3 832 233.7 864 224.5C896 215.3 928 184.7 960 180.7C992 176.7 1024 199.3 1056 199.2C1088 199 1120 176 1152 175.3C1184 174.7 1216 196.3 1248 203.5C1280 210.7 1312 203.3 1344 200.8C1376 198.3 1408 200.7 1424 201.8L1440 203L1440 301L1424 301C1408 301 1376 301 1344 301C1312 301 1280 301 1248 301C1216 301 1184 301 1152 301C1120 301 1088 301 1056 301C1024 301 992 301 960 301C928 301 896 301 864 301C832 301 800 301 768 301C736 301 704 301 672 301C640 301 608 301 576 301C544 301 512 301 480 301C448 301 416 301 384 301C352 301 320 301 288 301C256 301 224 301 192 301C160 301 128 301 96 301C64 301 32 301 16 301L0 301Z" fill="#5EBC67" stroke-linecap="round" stroke-linejoin="miter"></path></svg>